<mxfile host="app.diagrams.net" agent="Mozilla/5.0 (Windows NT 10.0; Win64; x64) AppleWebKit/537.36 (KHTML, like Gecko) Chrome/130.0.0.0 Safari/537.36" version="24.8.6" pages="2">
  <diagram name="Trang-1" id="IQlQR-nqOs0AIsMOTUAR">
    <mxGraphModel dx="945" dy="1654" grid="1" gridSize="14" guides="1" tooltips="1" connect="1" arrows="1" fold="1" page="1" pageScale="1" pageWidth="827" pageHeight="1169" math="0" shadow="0">
      <root>
        <mxCell id="0" />
        <mxCell id="1" parent="0" />
        <mxCell id="jlQTpdtMV0ugkx4Sc1M4-14" value="Employees" style="swimlane;fontStyle=0;childLayout=stackLayout;horizontal=1;startSize=30;horizontalStack=0;resizeParent=1;resizeParentMax=0;resizeLast=0;collapsible=1;marginBottom=0;whiteSpace=wrap;html=1;fontSize=13;fontFamily=Verdana;" parent="1" vertex="1">
          <mxGeometry x="450" y="-616" width="170" height="330" as="geometry" />
        </mxCell>
        <mxCell id="jlQTpdtMV0ugkx4Sc1M4-15" value="employee_id" style="text;strokeColor=#b85450;fillColor=#f8cecc;align=left;verticalAlign=middle;spacingLeft=4;spacingRight=4;overflow=hidden;points=[[0,0.5],[1,0.5]];portConstraint=eastwest;rotatable=0;whiteSpace=wrap;html=1;fontSize=13;fontStyle=1;fontFamily=Verdana;" parent="jlQTpdtMV0ugkx4Sc1M4-14" vertex="1">
          <mxGeometry y="30" width="170" height="30" as="geometry" />
        </mxCell>
        <mxCell id="jlQTpdtMV0ugkx4Sc1M4-16" value="first_name" style="text;strokeColor=none;fillColor=none;align=left;verticalAlign=middle;spacingLeft=4;spacingRight=4;overflow=hidden;points=[[0,0.5],[1,0.5]];portConstraint=eastwest;rotatable=0;whiteSpace=wrap;html=1;fontSize=13;fontFamily=Verdana;" parent="jlQTpdtMV0ugkx4Sc1M4-14" vertex="1">
          <mxGeometry y="60" width="170" height="30" as="geometry" />
        </mxCell>
        <mxCell id="jlQTpdtMV0ugkx4Sc1M4-17" value="last_name" style="text;strokeColor=none;fillColor=none;align=left;verticalAlign=middle;spacingLeft=4;spacingRight=4;overflow=hidden;points=[[0,0.5],[1,0.5]];portConstraint=eastwest;rotatable=0;whiteSpace=wrap;html=1;fontSize=13;fontFamily=Verdana;" parent="jlQTpdtMV0ugkx4Sc1M4-14" vertex="1">
          <mxGeometry y="90" width="170" height="30" as="geometry" />
        </mxCell>
        <mxCell id="jlQTpdtMV0ugkx4Sc1M4-18" value="gender" style="text;strokeColor=none;fillColor=none;align=left;verticalAlign=middle;spacingLeft=4;spacingRight=4;overflow=hidden;points=[[0,0.5],[1,0.5]];portConstraint=eastwest;rotatable=0;whiteSpace=wrap;html=1;fontSize=13;fontFamily=Verdana;" parent="jlQTpdtMV0ugkx4Sc1M4-14" vertex="1">
          <mxGeometry y="120" width="170" height="30" as="geometry" />
        </mxCell>
        <mxCell id="jlQTpdtMV0ugkx4Sc1M4-44" value="birth_date" style="text;strokeColor=none;fillColor=none;align=left;verticalAlign=middle;spacingLeft=4;spacingRight=4;overflow=hidden;points=[[0,0.5],[1,0.5]];portConstraint=eastwest;rotatable=0;whiteSpace=wrap;html=1;fontSize=13;fontFamily=Verdana;" parent="jlQTpdtMV0ugkx4Sc1M4-14" vertex="1">
          <mxGeometry y="150" width="170" height="30" as="geometry" />
        </mxCell>
        <mxCell id="jlQTpdtMV0ugkx4Sc1M4-19" value="ethnicity" style="text;strokeColor=none;fillColor=none;align=left;verticalAlign=middle;spacingLeft=4;spacingRight=4;overflow=hidden;points=[[0,0.5],[1,0.5]];portConstraint=eastwest;rotatable=0;whiteSpace=wrap;html=1;fontSize=13;fontFamily=Verdana;" parent="jlQTpdtMV0ugkx4Sc1M4-14" vertex="1">
          <mxGeometry y="180" width="170" height="30" as="geometry" />
        </mxCell>
        <mxCell id="jlQTpdtMV0ugkx4Sc1M4-20" value="employment_type" style="text;strokeColor=none;fillColor=none;align=left;verticalAlign=middle;spacingLeft=4;spacingRight=4;overflow=hidden;points=[[0,0.5],[1,0.5]];portConstraint=eastwest;rotatable=0;whiteSpace=wrap;html=1;fontSize=13;fontFamily=Verdana;" parent="jlQTpdtMV0ugkx4Sc1M4-14" vertex="1">
          <mxGeometry y="210" width="170" height="30" as="geometry" />
        </mxCell>
        <mxCell id="jlQTpdtMV0ugkx4Sc1M4-22" value="department_id" style="text;strokeColor=none;fillColor=none;align=left;verticalAlign=middle;spacingLeft=4;spacingRight=4;overflow=hidden;points=[[0,0.5],[1,0.5]];portConstraint=eastwest;rotatable=0;whiteSpace=wrap;html=1;fontSize=13;fontFamily=Verdana;" parent="jlQTpdtMV0ugkx4Sc1M4-14" vertex="1">
          <mxGeometry y="240" width="170" height="30" as="geometry" />
        </mxCell>
        <mxCell id="jlQTpdtMV0ugkx4Sc1M4-31" value="hire_date" style="text;strokeColor=none;fillColor=none;align=left;verticalAlign=middle;spacingLeft=4;spacingRight=4;overflow=hidden;points=[[0,0.5],[1,0.5]];portConstraint=eastwest;rotatable=0;whiteSpace=wrap;html=1;fontSize=13;fontFamily=Verdana;" parent="jlQTpdtMV0ugkx4Sc1M4-14" vertex="1">
          <mxGeometry y="270" width="170" height="30" as="geometry" />
        </mxCell>
        <mxCell id="f4NbF2WXXX4FlUsSoMFu-3" value="shareholder_status" style="text;strokeColor=none;fillColor=none;align=left;verticalAlign=middle;spacingLeft=4;spacingRight=4;overflow=hidden;points=[[0,0.5],[1,0.5]];portConstraint=eastwest;rotatable=0;whiteSpace=wrap;html=1;fontSize=13;fontFamily=Verdana;" vertex="1" parent="jlQTpdtMV0ugkx4Sc1M4-14">
          <mxGeometry y="300" width="170" height="30" as="geometry" />
        </mxCell>
        <mxCell id="jlQTpdtMV0ugkx4Sc1M4-34" value="Departments" style="swimlane;fontStyle=0;childLayout=stackLayout;horizontal=1;startSize=30;horizontalStack=0;resizeParent=1;resizeParentMax=0;resizeLast=0;collapsible=1;marginBottom=0;whiteSpace=wrap;html=1;fontSize=13;fontFamily=Verdana;" parent="1" vertex="1">
          <mxGeometry x="450" y="-224" width="170" height="90" as="geometry" />
        </mxCell>
        <mxCell id="jlQTpdtMV0ugkx4Sc1M4-35" value="department_id" style="text;strokeColor=#b85450;fillColor=#f8cecc;align=left;verticalAlign=middle;spacingLeft=4;spacingRight=4;overflow=hidden;points=[[0,0.5],[1,0.5]];portConstraint=eastwest;rotatable=0;whiteSpace=wrap;html=1;fontSize=13;fontStyle=1;fontFamily=Verdana;" parent="jlQTpdtMV0ugkx4Sc1M4-34" vertex="1">
          <mxGeometry y="30" width="170" height="30" as="geometry" />
        </mxCell>
        <mxCell id="jlQTpdtMV0ugkx4Sc1M4-36" value="department_name" style="text;strokeColor=none;fillColor=none;align=left;verticalAlign=middle;spacingLeft=4;spacingRight=4;overflow=hidden;points=[[0,0.5],[1,0.5]];portConstraint=eastwest;rotatable=0;whiteSpace=wrap;html=1;fontSize=13;fontFamily=Verdana;" parent="jlQTpdtMV0ugkx4Sc1M4-34" vertex="1">
          <mxGeometry y="60" width="170" height="30" as="geometry" />
        </mxCell>
        <mxCell id="jlQTpdtMV0ugkx4Sc1M4-45" value="Payroll" style="swimlane;fontStyle=0;childLayout=stackLayout;horizontal=1;startSize=30;horizontalStack=0;resizeParent=1;resizeParentMax=0;resizeLast=0;collapsible=1;marginBottom=0;whiteSpace=wrap;html=1;fontSize=13;fontFamily=Verdana;" parent="1" vertex="1">
          <mxGeometry x="784" y="-728" width="170" height="210" as="geometry" />
        </mxCell>
        <mxCell id="jlQTpdtMV0ugkx4Sc1M4-46" value="payroll_id" style="text;strokeColor=#b85450;fillColor=#f8cecc;align=left;verticalAlign=middle;spacingLeft=4;spacingRight=4;overflow=hidden;points=[[0,0.5],[1,0.5]];portConstraint=eastwest;rotatable=0;whiteSpace=wrap;html=1;fontSize=13;fontStyle=1;fontFamily=Verdana;" parent="jlQTpdtMV0ugkx4Sc1M4-45" vertex="1">
          <mxGeometry y="30" width="170" height="30" as="geometry" />
        </mxCell>
        <mxCell id="jlQTpdtMV0ugkx4Sc1M4-47" value="employee_id" style="text;strokeColor=none;fillColor=none;align=left;verticalAlign=middle;spacingLeft=4;spacingRight=4;overflow=hidden;points=[[0,0.5],[1,0.5]];portConstraint=eastwest;rotatable=0;whiteSpace=wrap;html=1;fontSize=13;fontFamily=Verdana;" parent="jlQTpdtMV0ugkx4Sc1M4-45" vertex="1">
          <mxGeometry y="60" width="170" height="30" as="geometry" />
        </mxCell>
        <mxCell id="jlQTpdtMV0ugkx4Sc1M4-48" value="salary" style="text;strokeColor=none;fillColor=none;align=left;verticalAlign=middle;spacingLeft=4;spacingRight=4;overflow=hidden;points=[[0,0.5],[1,0.5]];portConstraint=eastwest;rotatable=0;whiteSpace=wrap;html=1;fontSize=13;fontFamily=Verdana;" parent="jlQTpdtMV0ugkx4Sc1M4-45" vertex="1">
          <mxGeometry y="90" width="170" height="30" as="geometry" />
        </mxCell>
        <mxCell id="jlQTpdtMV0ugkx4Sc1M4-49" value="benefits_plan" style="text;strokeColor=none;fillColor=none;align=left;verticalAlign=middle;spacingLeft=4;spacingRight=4;overflow=hidden;points=[[0,0.5],[1,0.5]];portConstraint=eastwest;rotatable=0;whiteSpace=wrap;html=1;fontSize=13;fontFamily=Verdana;" parent="jlQTpdtMV0ugkx4Sc1M4-45" vertex="1">
          <mxGeometry y="120" width="170" height="30" as="geometry" />
        </mxCell>
        <mxCell id="jlQTpdtMV0ugkx4Sc1M4-50" value="year_to_date_salary" style="text;strokeColor=none;fillColor=none;align=left;verticalAlign=middle;spacingLeft=4;spacingRight=4;overflow=hidden;points=[[0,0.5],[1,0.5]];portConstraint=eastwest;rotatable=0;whiteSpace=wrap;html=1;fontSize=13;fontFamily=Verdana;" parent="jlQTpdtMV0ugkx4Sc1M4-45" vertex="1">
          <mxGeometry y="150" width="170" height="30" as="geometry" />
        </mxCell>
        <mxCell id="jlQTpdtMV0ugkx4Sc1M4-51" value="previous_year_salary" style="text;strokeColor=none;fillColor=none;align=left;verticalAlign=middle;spacingLeft=4;spacingRight=4;overflow=hidden;points=[[0,0.5],[1,0.5]];portConstraint=eastwest;rotatable=0;whiteSpace=wrap;html=1;fontSize=13;fontFamily=Verdana;" parent="jlQTpdtMV0ugkx4Sc1M4-45" vertex="1">
          <mxGeometry y="180" width="170" height="30" as="geometry" />
        </mxCell>
        <mxCell id="jlQTpdtMV0ugkx4Sc1M4-55" value="Benefits" style="swimlane;fontStyle=0;childLayout=stackLayout;horizontal=1;startSize=30;horizontalStack=0;resizeParent=1;resizeParentMax=0;resizeLast=0;collapsible=1;marginBottom=0;whiteSpace=wrap;html=1;fontSize=13;fontFamily=Verdana;" parent="1" vertex="1">
          <mxGeometry x="110" y="-560" width="170" height="180" as="geometry" />
        </mxCell>
        <mxCell id="jlQTpdtMV0ugkx4Sc1M4-56" value="benefit_id" style="text;strokeColor=#b85450;fillColor=#f8cecc;align=left;verticalAlign=middle;spacingLeft=4;spacingRight=4;overflow=hidden;points=[[0,0.5],[1,0.5]];portConstraint=eastwest;rotatable=0;whiteSpace=wrap;html=1;fontSize=13;fontStyle=1;fontFamily=Verdana;" parent="jlQTpdtMV0ugkx4Sc1M4-55" vertex="1">
          <mxGeometry y="30" width="170" height="30" as="geometry" />
        </mxCell>
        <mxCell id="jlQTpdtMV0ugkx4Sc1M4-57" value="employee_id" style="text;strokeColor=none;fillColor=none;align=left;verticalAlign=middle;spacingLeft=4;spacingRight=4;overflow=hidden;points=[[0,0.5],[1,0.5]];portConstraint=eastwest;rotatable=0;whiteSpace=wrap;html=1;fontSize=13;fontFamily=Verdana;" parent="jlQTpdtMV0ugkx4Sc1M4-55" vertex="1">
          <mxGeometry y="60" width="170" height="30" as="geometry" />
        </mxCell>
        <mxCell id="jlQTpdtMV0ugkx4Sc1M4-58" value="benefit_type" style="text;strokeColor=none;fillColor=none;align=left;verticalAlign=middle;spacingLeft=4;spacingRight=4;overflow=hidden;points=[[0,0.5],[1,0.5]];portConstraint=eastwest;rotatable=0;whiteSpace=wrap;html=1;fontSize=13;fontFamily=Verdana;" parent="jlQTpdtMV0ugkx4Sc1M4-55" vertex="1">
          <mxGeometry y="90" width="170" height="30" as="geometry" />
        </mxCell>
        <mxCell id="jlQTpdtMV0ugkx4Sc1M4-59" value="benefit_amount" style="text;strokeColor=none;fillColor=none;align=left;verticalAlign=middle;spacingLeft=4;spacingRight=4;overflow=hidden;points=[[0,0.5],[1,0.5]];portConstraint=eastwest;rotatable=0;whiteSpace=wrap;html=1;fontSize=13;fontFamily=Verdana;" parent="jlQTpdtMV0ugkx4Sc1M4-55" vertex="1">
          <mxGeometry y="120" width="170" height="30" as="geometry" />
        </mxCell>
        <mxCell id="jlQTpdtMV0ugkx4Sc1M4-60" value="plan_id" style="text;strokeColor=none;fillColor=none;align=left;verticalAlign=middle;spacingLeft=4;spacingRight=4;overflow=hidden;points=[[0,0.5],[1,0.5]];portConstraint=eastwest;rotatable=0;whiteSpace=wrap;html=1;fontSize=13;fontFamily=Verdana;" parent="jlQTpdtMV0ugkx4Sc1M4-55" vertex="1">
          <mxGeometry y="150" width="170" height="30" as="geometry" />
        </mxCell>
        <mxCell id="jlQTpdtMV0ugkx4Sc1M4-62" value="Benefits Plans" style="swimlane;fontStyle=0;childLayout=stackLayout;horizontal=1;startSize=30;horizontalStack=0;resizeParent=1;resizeParentMax=0;resizeLast=0;collapsible=1;marginBottom=0;whiteSpace=wrap;html=1;fontSize=13;fontFamily=Verdana;" parent="1" vertex="1">
          <mxGeometry x="110" y="-728" width="170" height="120" as="geometry" />
        </mxCell>
        <mxCell id="jlQTpdtMV0ugkx4Sc1M4-63" value="plan_id" style="text;strokeColor=#b85450;fillColor=#f8cecc;align=left;verticalAlign=middle;spacingLeft=4;spacingRight=4;overflow=hidden;points=[[0,0.5],[1,0.5]];portConstraint=eastwest;rotatable=0;whiteSpace=wrap;html=1;fontSize=13;fontStyle=1;fontFamily=Verdana;" parent="jlQTpdtMV0ugkx4Sc1M4-62" vertex="1">
          <mxGeometry y="30" width="170" height="30" as="geometry" />
        </mxCell>
        <mxCell id="jlQTpdtMV0ugkx4Sc1M4-64" value="plan_name" style="text;strokeColor=none;fillColor=none;align=left;verticalAlign=middle;spacingLeft=4;spacingRight=4;overflow=hidden;points=[[0,0.5],[1,0.5]];portConstraint=eastwest;rotatable=0;whiteSpace=wrap;html=1;fontSize=13;fontFamily=Verdana;" parent="jlQTpdtMV0ugkx4Sc1M4-62" vertex="1">
          <mxGeometry y="60" width="170" height="30" as="geometry" />
        </mxCell>
        <mxCell id="jlQTpdtMV0ugkx4Sc1M4-65" value="description" style="text;strokeColor=none;fillColor=none;align=left;verticalAlign=middle;spacingLeft=4;spacingRight=4;overflow=hidden;points=[[0,0.5],[1,0.5]];portConstraint=eastwest;rotatable=0;whiteSpace=wrap;html=1;fontSize=13;fontFamily=Verdana;" parent="jlQTpdtMV0ugkx4Sc1M4-62" vertex="1">
          <mxGeometry y="90" width="170" height="30" as="geometry" />
        </mxCell>
        <mxCell id="jlQTpdtMV0ugkx4Sc1M4-69" value="Vacation Days" style="swimlane;fontStyle=0;childLayout=stackLayout;horizontal=1;startSize=30;horizontalStack=0;resizeParent=1;resizeParentMax=0;resizeLast=0;collapsible=1;marginBottom=0;whiteSpace=wrap;html=1;fontSize=13;fontFamily=Verdana;" parent="1" vertex="1">
          <mxGeometry x="784" y="-224" width="170" height="150" as="geometry" />
        </mxCell>
        <mxCell id="jlQTpdtMV0ugkx4Sc1M4-70" value="vacation_id" style="text;strokeColor=#b85450;fillColor=#f8cecc;align=left;verticalAlign=middle;spacingLeft=4;spacingRight=4;overflow=hidden;points=[[0,0.5],[1,0.5]];portConstraint=eastwest;rotatable=0;whiteSpace=wrap;html=1;fontSize=13;fontStyle=1;fontFamily=Verdana;" parent="jlQTpdtMV0ugkx4Sc1M4-69" vertex="1">
          <mxGeometry y="30" width="170" height="30" as="geometry" />
        </mxCell>
        <mxCell id="jlQTpdtMV0ugkx4Sc1M4-71" value="employee_id" style="text;strokeColor=none;fillColor=none;align=left;verticalAlign=middle;spacingLeft=4;spacingRight=4;overflow=hidden;points=[[0,0.5],[1,0.5]];portConstraint=eastwest;rotatable=0;whiteSpace=wrap;html=1;fontSize=13;fontFamily=Verdana;" parent="jlQTpdtMV0ugkx4Sc1M4-69" vertex="1">
          <mxGeometry y="60" width="170" height="30" as="geometry" />
        </mxCell>
        <mxCell id="jlQTpdtMV0ugkx4Sc1M4-72" value="vacation_days_taken" style="text;strokeColor=none;fillColor=none;align=left;verticalAlign=middle;spacingLeft=4;spacingRight=4;overflow=hidden;points=[[0,0.5],[1,0.5]];portConstraint=eastwest;rotatable=0;whiteSpace=wrap;html=1;fontSize=13;fontFamily=Verdana;" parent="jlQTpdtMV0ugkx4Sc1M4-69" vertex="1">
          <mxGeometry y="90" width="170" height="30" as="geometry" />
        </mxCell>
        <mxCell id="jlQTpdtMV0ugkx4Sc1M4-73" value="year" style="text;strokeColor=none;fillColor=none;align=left;verticalAlign=middle;spacingLeft=4;spacingRight=4;overflow=hidden;points=[[0,0.5],[1,0.5]];portConstraint=eastwest;rotatable=0;whiteSpace=wrap;html=1;fontSize=13;fontFamily=Verdana;" parent="jlQTpdtMV0ugkx4Sc1M4-69" vertex="1">
          <mxGeometry y="120" width="170" height="30" as="geometry" />
        </mxCell>
        <mxCell id="jlQTpdtMV0ugkx4Sc1M4-76" value="Shareholders" style="swimlane;fontStyle=0;childLayout=stackLayout;horizontal=1;startSize=30;horizontalStack=0;resizeParent=1;resizeParentMax=0;resizeLast=0;collapsible=1;marginBottom=0;whiteSpace=wrap;html=1;fontSize=13;fontFamily=Verdana;" parent="1" vertex="1">
          <mxGeometry x="784" y="-448" width="170" height="180" as="geometry" />
        </mxCell>
        <mxCell id="jlQTpdtMV0ugkx4Sc1M4-77" value="shareholder_id" style="text;strokeColor=#b85450;fillColor=#f8cecc;align=left;verticalAlign=middle;spacingLeft=4;spacingRight=4;overflow=hidden;points=[[0,0.5],[1,0.5]];portConstraint=eastwest;rotatable=0;whiteSpace=wrap;html=1;fontSize=13;fontStyle=1;fontFamily=Verdana;" parent="jlQTpdtMV0ugkx4Sc1M4-76" vertex="1">
          <mxGeometry y="30" width="170" height="30" as="geometry" />
        </mxCell>
        <mxCell id="jlQTpdtMV0ugkx4Sc1M4-78" value="shareholder_name" style="text;strokeColor=none;fillColor=none;align=left;verticalAlign=middle;spacingLeft=4;spacingRight=4;overflow=hidden;points=[[0,0.5],[1,0.5]];portConstraint=eastwest;rotatable=0;whiteSpace=wrap;html=1;fontSize=13;fontFamily=Verdana;" parent="jlQTpdtMV0ugkx4Sc1M4-76" vertex="1">
          <mxGeometry y="60" width="170" height="30" as="geometry" />
        </mxCell>
        <mxCell id="jlQTpdtMV0ugkx4Sc1M4-79" value="employee_id" style="text;strokeColor=none;fillColor=none;align=left;verticalAlign=middle;spacingLeft=4;spacingRight=4;overflow=hidden;points=[[0,0.5],[1,0.5]];portConstraint=eastwest;rotatable=0;whiteSpace=wrap;html=1;fontSize=13;fontFamily=Verdana;" parent="jlQTpdtMV0ugkx4Sc1M4-76" vertex="1">
          <mxGeometry y="90" width="170" height="30" as="geometry" />
        </mxCell>
        <mxCell id="jlQTpdtMV0ugkx4Sc1M4-80" value="shares_owned" style="text;strokeColor=none;fillColor=none;align=left;verticalAlign=middle;spacingLeft=4;spacingRight=4;overflow=hidden;points=[[0,0.5],[1,0.5]];portConstraint=eastwest;rotatable=0;whiteSpace=wrap;html=1;fontSize=13;fontFamily=Verdana;" parent="jlQTpdtMV0ugkx4Sc1M4-76" vertex="1">
          <mxGeometry y="120" width="170" height="30" as="geometry" />
        </mxCell>
        <mxCell id="f4NbF2WXXX4FlUsSoMFu-2" value="shareholder_status" style="text;strokeColor=none;fillColor=none;align=left;verticalAlign=middle;spacingLeft=4;spacingRight=4;overflow=hidden;points=[[0,0.5],[1,0.5]];portConstraint=eastwest;rotatable=0;whiteSpace=wrap;html=1;fontSize=13;fontFamily=Verdana;" vertex="1" parent="jlQTpdtMV0ugkx4Sc1M4-76">
          <mxGeometry y="150" width="170" height="30" as="geometry" />
        </mxCell>
        <mxCell id="jlQTpdtMV0ugkx4Sc1M4-81" value="Alerts" style="swimlane;fontStyle=0;childLayout=stackLayout;horizontal=1;startSize=30;horizontalStack=0;resizeParent=1;resizeParentMax=0;resizeLast=0;collapsible=1;marginBottom=0;whiteSpace=wrap;html=1;fontSize=13;fontFamily=Verdana;" parent="1" vertex="1">
          <mxGeometry x="112" y="-336" width="170" height="150" as="geometry" />
        </mxCell>
        <mxCell id="jlQTpdtMV0ugkx4Sc1M4-82" value="alert_id" style="text;strokeColor=#b85450;fillColor=#f8cecc;align=left;verticalAlign=middle;spacingLeft=4;spacingRight=4;overflow=hidden;points=[[0,0.5],[1,0.5]];portConstraint=eastwest;rotatable=0;whiteSpace=wrap;html=1;fontSize=13;fontStyle=1;fontFamily=Verdana;" parent="jlQTpdtMV0ugkx4Sc1M4-81" vertex="1">
          <mxGeometry y="30" width="170" height="30" as="geometry" />
        </mxCell>
        <mxCell id="jlQTpdtMV0ugkx4Sc1M4-83" value="alert_type" style="text;strokeColor=none;fillColor=none;align=left;verticalAlign=middle;spacingLeft=4;spacingRight=4;overflow=hidden;points=[[0,0.5],[1,0.5]];portConstraint=eastwest;rotatable=0;whiteSpace=wrap;html=1;fontSize=13;fontFamily=Verdana;" parent="jlQTpdtMV0ugkx4Sc1M4-81" vertex="1">
          <mxGeometry y="60" width="170" height="30" as="geometry" />
        </mxCell>
        <mxCell id="jlQTpdtMV0ugkx4Sc1M4-84" value="employee_id" style="text;strokeColor=none;fillColor=none;align=left;verticalAlign=middle;spacingLeft=4;spacingRight=4;overflow=hidden;points=[[0,0.5],[1,0.5]];portConstraint=eastwest;rotatable=0;whiteSpace=wrap;html=1;fontSize=13;fontFamily=Verdana;" parent="jlQTpdtMV0ugkx4Sc1M4-81" vertex="1">
          <mxGeometry y="90" width="170" height="30" as="geometry" />
        </mxCell>
        <mxCell id="jlQTpdtMV0ugkx4Sc1M4-85" value="alert_date" style="text;strokeColor=none;fillColor=none;align=left;verticalAlign=middle;spacingLeft=4;spacingRight=4;overflow=hidden;points=[[0,0.5],[1,0.5]];portConstraint=eastwest;rotatable=0;whiteSpace=wrap;html=1;fontSize=13;fontFamily=Verdana;" parent="jlQTpdtMV0ugkx4Sc1M4-81" vertex="1">
          <mxGeometry y="120" width="170" height="30" as="geometry" />
        </mxCell>
        <mxCell id="jlQTpdtMV0ugkx4Sc1M4-86" style="edgeStyle=orthogonalEdgeStyle;rounded=0;orthogonalLoop=1;jettySize=auto;html=1;exitX=0;exitY=0.5;exitDx=0;exitDy=0;entryX=1;entryY=0.5;entryDx=0;entryDy=0;endArrow=none;endFill=0;fontFamily=Verdana;fontSize=13;" parent="1" source="jlQTpdtMV0ugkx4Sc1M4-15" target="jlQTpdtMV0ugkx4Sc1M4-57" edge="1">
          <mxGeometry relative="1" as="geometry" />
        </mxCell>
        <mxCell id="jlQTpdtMV0ugkx4Sc1M4-87" style="edgeStyle=orthogonalEdgeStyle;rounded=0;orthogonalLoop=1;jettySize=auto;html=1;exitX=1;exitY=0.5;exitDx=0;exitDy=0;entryX=0;entryY=0.5;entryDx=0;entryDy=0;endArrow=none;endFill=0;fontFamily=Verdana;fontSize=13;" parent="1" source="jlQTpdtMV0ugkx4Sc1M4-15" target="jlQTpdtMV0ugkx4Sc1M4-47" edge="1">
          <mxGeometry relative="1" as="geometry" />
        </mxCell>
        <mxCell id="jlQTpdtMV0ugkx4Sc1M4-88" style="edgeStyle=orthogonalEdgeStyle;rounded=0;orthogonalLoop=1;jettySize=auto;html=1;exitX=1;exitY=0.5;exitDx=0;exitDy=0;entryX=0;entryY=0.5;entryDx=0;entryDy=0;endArrow=none;endFill=0;fontFamily=Verdana;fontSize=13;" parent="1" source="jlQTpdtMV0ugkx4Sc1M4-15" target="jlQTpdtMV0ugkx4Sc1M4-79" edge="1">
          <mxGeometry relative="1" as="geometry" />
        </mxCell>
        <mxCell id="jlQTpdtMV0ugkx4Sc1M4-89" style="edgeStyle=orthogonalEdgeStyle;rounded=0;orthogonalLoop=1;jettySize=auto;html=1;exitX=1;exitY=0.5;exitDx=0;exitDy=0;entryX=0;entryY=0.5;entryDx=0;entryDy=0;endArrow=none;endFill=0;fontFamily=Verdana;fontSize=13;" parent="1" source="jlQTpdtMV0ugkx4Sc1M4-15" target="jlQTpdtMV0ugkx4Sc1M4-71" edge="1">
          <mxGeometry relative="1" as="geometry" />
        </mxCell>
        <mxCell id="jlQTpdtMV0ugkx4Sc1M4-90" style="edgeStyle=orthogonalEdgeStyle;rounded=0;orthogonalLoop=1;jettySize=auto;html=1;exitX=0;exitY=0.5;exitDx=0;exitDy=0;endArrow=none;endFill=0;fontFamily=Verdana;fontSize=13;" parent="1" source="jlQTpdtMV0ugkx4Sc1M4-15" target="jlQTpdtMV0ugkx4Sc1M4-84" edge="1">
          <mxGeometry relative="1" as="geometry" />
        </mxCell>
        <mxCell id="f4NbF2WXXX4FlUsSoMFu-1" style="edgeStyle=orthogonalEdgeStyle;rounded=0;orthogonalLoop=1;jettySize=auto;html=1;exitX=0;exitY=0.5;exitDx=0;exitDy=0;entryX=0;entryY=0.5;entryDx=0;entryDy=0;endArrow=none;endFill=0;fontFamily=Verdana;fontSize=13;" edge="1" parent="1" source="jlQTpdtMV0ugkx4Sc1M4-35" target="jlQTpdtMV0ugkx4Sc1M4-22">
          <mxGeometry relative="1" as="geometry" />
        </mxCell>
        <mxCell id="f4NbF2WXXX4FlUsSoMFu-5" style="edgeStyle=orthogonalEdgeStyle;rounded=0;orthogonalLoop=1;jettySize=auto;html=1;exitX=0;exitY=0.5;exitDx=0;exitDy=0;entryX=0;entryY=0.5;entryDx=0;entryDy=0;endArrow=none;endFill=0;" edge="1" parent="1" source="jlQTpdtMV0ugkx4Sc1M4-63" target="jlQTpdtMV0ugkx4Sc1M4-60">
          <mxGeometry relative="1" as="geometry">
            <Array as="points">
              <mxPoint x="56" y="-683" />
              <mxPoint x="56" y="-395" />
            </Array>
          </mxGeometry>
        </mxCell>
      </root>
    </mxGraphModel>
  </diagram>
  <diagram id="1iCmfC3M_6CcmksYUMNh" name="THHT_Part2">
    <mxGraphModel dx="2060" dy="1847" grid="0" gridSize="10" guides="1" tooltips="1" connect="1" arrows="1" fold="1" page="0" pageScale="1" pageWidth="827" pageHeight="1169" math="0" shadow="0">
      <root>
        <mxCell id="0" />
        <mxCell id="1" parent="0" />
        <mxCell id="x7x7rkkFgoDxlhbGWXUu-1" value="Employees" style="swimlane;fontStyle=0;childLayout=stackLayout;horizontal=1;startSize=30;horizontalStack=0;resizeParent=1;resizeParentMax=0;resizeLast=0;collapsible=1;marginBottom=0;whiteSpace=wrap;html=1;fontSize=13;fontFamily=Verdana;fillStyle=auto;perimeterSpacing=1;rotation=0;" parent="1" vertex="1">
          <mxGeometry x="251" y="-823" width="230" height="338" as="geometry" />
        </mxCell>
        <mxCell id="x7x7rkkFgoDxlhbGWXUu-2" value="employee_id" style="text;strokeColor=#b85450;fillColor=#f8cecc;align=left;verticalAlign=middle;spacingLeft=4;spacingRight=4;overflow=hidden;points=[[0,0.5],[1,0.5]];portConstraint=eastwest;rotatable=0;whiteSpace=wrap;html=1;fontSize=13;fontStyle=1;fontFamily=Verdana;" parent="x7x7rkkFgoDxlhbGWXUu-1" vertex="1">
          <mxGeometry y="30" width="230" height="28" as="geometry" />
        </mxCell>
        <mxCell id="x7x7rkkFgoDxlhbGWXUu-3" value="first_name" style="text;strokeColor=none;fillColor=none;align=left;verticalAlign=middle;spacingLeft=4;spacingRight=4;overflow=hidden;points=[[0,0.5],[1,0.5]];portConstraint=eastwest;rotatable=0;whiteSpace=wrap;html=1;fontSize=13;fontFamily=Verdana;" parent="x7x7rkkFgoDxlhbGWXUu-1" vertex="1">
          <mxGeometry y="58" width="230" height="28" as="geometry" />
        </mxCell>
        <mxCell id="x7x7rkkFgoDxlhbGWXUu-4" value="last_name" style="text;strokeColor=none;fillColor=none;align=left;verticalAlign=middle;spacingLeft=4;spacingRight=4;overflow=hidden;points=[[0,0.5],[1,0.5]];portConstraint=eastwest;rotatable=0;whiteSpace=wrap;html=1;fontSize=13;fontFamily=Verdana;" parent="x7x7rkkFgoDxlhbGWXUu-1" vertex="1">
          <mxGeometry y="86" width="230" height="28" as="geometry" />
        </mxCell>
        <mxCell id="x7x7rkkFgoDxlhbGWXUu-5" value="gender" style="text;strokeColor=none;fillColor=none;align=left;verticalAlign=middle;spacingLeft=4;spacingRight=4;overflow=hidden;points=[[0,0.5],[1,0.5]];portConstraint=eastwest;rotatable=0;whiteSpace=wrap;html=1;fontSize=13;fontFamily=Verdana;" parent="x7x7rkkFgoDxlhbGWXUu-1" vertex="1">
          <mxGeometry y="114" width="230" height="28" as="geometry" />
        </mxCell>
        <mxCell id="x7x7rkkFgoDxlhbGWXUu-6" value="birth_date" style="text;strokeColor=none;fillColor=none;align=left;verticalAlign=middle;spacingLeft=4;spacingRight=4;overflow=hidden;points=[[0,0.5],[1,0.5]];portConstraint=eastwest;rotatable=0;whiteSpace=wrap;html=1;fontSize=13;fontFamily=Verdana;" parent="x7x7rkkFgoDxlhbGWXUu-1" vertex="1">
          <mxGeometry y="142" width="230" height="28" as="geometry" />
        </mxCell>
        <mxCell id="x7x7rkkFgoDxlhbGWXUu-7" value="ethnicity" style="text;strokeColor=none;fillColor=none;align=left;verticalAlign=middle;spacingLeft=4;spacingRight=4;overflow=hidden;points=[[0,0.5],[1,0.5]];portConstraint=eastwest;rotatable=0;whiteSpace=wrap;html=1;fontSize=13;fontFamily=Verdana;" parent="x7x7rkkFgoDxlhbGWXUu-1" vertex="1">
          <mxGeometry y="170" width="230" height="28" as="geometry" />
        </mxCell>
        <mxCell id="x7x7rkkFgoDxlhbGWXUu-8" value="employment_type" style="text;strokeColor=none;fillColor=none;align=left;verticalAlign=middle;spacingLeft=4;spacingRight=4;overflow=hidden;points=[[0,0.5],[1,0.5]];portConstraint=eastwest;rotatable=0;whiteSpace=wrap;html=1;fontSize=13;fontFamily=Verdana;" parent="x7x7rkkFgoDxlhbGWXUu-1" vertex="1">
          <mxGeometry y="198" width="230" height="28" as="geometry" />
        </mxCell>
        <mxCell id="x7x7rkkFgoDxlhbGWXUu-9" value="department_id" style="text;strokeColor=none;fillColor=none;align=left;verticalAlign=middle;spacingLeft=4;spacingRight=4;overflow=hidden;points=[[0,0.5],[1,0.5]];portConstraint=eastwest;rotatable=0;whiteSpace=wrap;html=1;fontSize=13;fontFamily=Verdana;" parent="x7x7rkkFgoDxlhbGWXUu-1" vertex="1">
          <mxGeometry y="226" width="230" height="28" as="geometry" />
        </mxCell>
        <mxCell id="hDPqVTXu_0Sy-WfJtwh6-1" value="branch_id" style="text;strokeColor=none;fillColor=none;align=left;verticalAlign=middle;spacingLeft=4;spacingRight=4;overflow=hidden;points=[[0,0.5],[1,0.5]];portConstraint=eastwest;rotatable=0;whiteSpace=wrap;html=1;fontSize=13;fontFamily=Verdana;" vertex="1" parent="x7x7rkkFgoDxlhbGWXUu-1">
          <mxGeometry y="254" width="230" height="28" as="geometry" />
        </mxCell>
        <mxCell id="hDPqVTXu_0Sy-WfJtwh6-2" value="position_id" style="text;strokeColor=none;fillColor=none;align=left;verticalAlign=middle;spacingLeft=4;spacingRight=4;overflow=hidden;points=[[0,0.5],[1,0.5]];portConstraint=eastwest;rotatable=0;whiteSpace=wrap;html=1;fontSize=13;fontFamily=Verdana;" vertex="1" parent="x7x7rkkFgoDxlhbGWXUu-1">
          <mxGeometry y="282" width="230" height="28" as="geometry" />
        </mxCell>
        <mxCell id="x7x7rkkFgoDxlhbGWXUu-10" value="hire_date" style="text;strokeColor=none;fillColor=none;align=left;verticalAlign=middle;spacingLeft=4;spacingRight=4;overflow=hidden;points=[[0,0.5],[1,0.5]];portConstraint=eastwest;rotatable=0;whiteSpace=wrap;html=1;fontSize=13;fontFamily=Verdana;" parent="x7x7rkkFgoDxlhbGWXUu-1" vertex="1">
          <mxGeometry y="310" width="230" height="28" as="geometry" />
        </mxCell>
        <mxCell id="x7x7rkkFgoDxlhbGWXUu-12" value="Departments" style="swimlane;fontStyle=0;childLayout=stackLayout;horizontal=1;startSize=30;horizontalStack=0;resizeParent=1;resizeParentMax=0;resizeLast=0;collapsible=1;marginBottom=0;whiteSpace=wrap;html=1;fontSize=13;fontFamily=Verdana;" parent="1" vertex="1">
          <mxGeometry x="663" y="-681" width="170" height="86" as="geometry" />
        </mxCell>
        <mxCell id="x7x7rkkFgoDxlhbGWXUu-13" value="department_id" style="text;strokeColor=#b85450;fillColor=#f8cecc;align=left;verticalAlign=middle;spacingLeft=4;spacingRight=4;overflow=hidden;points=[[0,0.5],[1,0.5]];portConstraint=eastwest;rotatable=0;whiteSpace=wrap;html=1;fontSize=13;fontStyle=1;fontFamily=Verdana;" parent="x7x7rkkFgoDxlhbGWXUu-12" vertex="1">
          <mxGeometry y="30" width="170" height="28" as="geometry" />
        </mxCell>
        <mxCell id="x7x7rkkFgoDxlhbGWXUu-14" value="department_name" style="text;strokeColor=none;fillColor=none;align=left;verticalAlign=middle;spacingLeft=4;spacingRight=4;overflow=hidden;points=[[0,0.5],[1,0.5]];portConstraint=eastwest;rotatable=0;whiteSpace=wrap;html=1;fontSize=13;fontFamily=Verdana;" parent="x7x7rkkFgoDxlhbGWXUu-12" vertex="1">
          <mxGeometry y="58" width="170" height="28" as="geometry" />
        </mxCell>
        <mxCell id="x7x7rkkFgoDxlhbGWXUu-15" value="Payroll" style="swimlane;fontStyle=0;childLayout=stackLayout;horizontal=1;startSize=30;horizontalStack=0;resizeParent=1;resizeParentMax=0;resizeLast=0;collapsible=1;marginBottom=0;whiteSpace=wrap;html=1;fontSize=13;fontFamily=Verdana;" parent="1" vertex="1">
          <mxGeometry x="-93" y="-773" width="209" height="181" as="geometry" />
        </mxCell>
        <mxCell id="x7x7rkkFgoDxlhbGWXUu-16" value="payroll_id" style="text;strokeColor=#b85450;fillColor=#f8cecc;align=left;verticalAlign=middle;spacingLeft=4;spacingRight=4;overflow=hidden;points=[[0,0.5],[1,0.5]];portConstraint=eastwest;rotatable=0;whiteSpace=wrap;html=1;fontSize=13;fontStyle=1;fontFamily=Verdana;" parent="x7x7rkkFgoDxlhbGWXUu-15" vertex="1">
          <mxGeometry y="30" width="209" height="28" as="geometry" />
        </mxCell>
        <mxCell id="x7x7rkkFgoDxlhbGWXUu-17" value="employee_id" style="text;strokeColor=none;fillColor=none;align=left;verticalAlign=middle;spacingLeft=4;spacingRight=4;overflow=hidden;points=[[0,0.5],[1,0.5]];portConstraint=eastwest;rotatable=0;whiteSpace=wrap;html=1;fontSize=13;fontFamily=Verdana;" parent="x7x7rkkFgoDxlhbGWXUu-15" vertex="1">
          <mxGeometry y="58" width="209" height="28" as="geometry" />
        </mxCell>
        <mxCell id="hDPqVTXu_0Sy-WfJtwh6-35" value="earnings_to_date" style="text;strokeColor=none;fillColor=none;align=left;verticalAlign=middle;spacingLeft=4;spacingRight=4;overflow=hidden;points=[[0,0.5],[1,0.5]];portConstraint=eastwest;rotatable=0;whiteSpace=wrap;html=1;fontSize=13;fontFamily=Verdana;" vertex="1" parent="x7x7rkkFgoDxlhbGWXUu-15">
          <mxGeometry y="86" width="209" height="28" as="geometry" />
        </mxCell>
        <mxCell id="x7x7rkkFgoDxlhbGWXUu-18" value="earnings_previous_year" style="text;strokeColor=none;fillColor=none;align=left;verticalAlign=middle;spacingLeft=4;spacingRight=4;overflow=hidden;points=[[0,0.5],[1,0.5]];portConstraint=eastwest;rotatable=0;whiteSpace=wrap;html=1;fontSize=13;fontFamily=Verdana;" parent="x7x7rkkFgoDxlhbGWXUu-15" vertex="1">
          <mxGeometry y="114" width="209" height="28" as="geometry" />
        </mxCell>
        <mxCell id="x7x7rkkFgoDxlhbGWXUu-20" value="&lt;table&gt;&lt;tbody&gt;&lt;tr&gt;&lt;td&gt;benefits_plan_id&lt;/td&gt;&lt;/tr&gt;&lt;/tbody&gt;&lt;/table&gt;&lt;table&gt;&lt;tbody&gt;&lt;tr&gt;&lt;td&gt;&lt;/td&gt;&lt;/tr&gt;&lt;/tbody&gt;&lt;/table&gt;" style="text;strokeColor=none;fillColor=none;align=left;verticalAlign=middle;spacingLeft=4;spacingRight=4;overflow=hidden;points=[[0,0.5],[1,0.5]];portConstraint=eastwest;rotatable=0;whiteSpace=wrap;html=1;fontSize=13;fontFamily=Verdana;" parent="x7x7rkkFgoDxlhbGWXUu-15" vertex="1">
          <mxGeometry y="142" width="209" height="39" as="geometry" />
        </mxCell>
        <mxCell id="x7x7rkkFgoDxlhbGWXUu-22" value="Benefits_Plans " style="swimlane;fontStyle=0;childLayout=stackLayout;horizontal=1;startSize=30;horizontalStack=0;resizeParent=1;resizeParentMax=0;resizeLast=0;collapsible=1;marginBottom=0;whiteSpace=wrap;html=1;fontSize=13;fontFamily=Verdana;" parent="1" vertex="1">
          <mxGeometry x="-125" y="-434" width="209" height="114" as="geometry" />
        </mxCell>
        <mxCell id="x7x7rkkFgoDxlhbGWXUu-23" value="benefits_plan_id" style="text;strokeColor=#b85450;fillColor=#f8cecc;align=left;verticalAlign=middle;spacingLeft=4;spacingRight=4;overflow=hidden;points=[[0,0.5],[1,0.5]];portConstraint=eastwest;rotatable=0;whiteSpace=wrap;html=1;fontSize=13;fontStyle=1;fontFamily=Verdana;" parent="x7x7rkkFgoDxlhbGWXUu-22" vertex="1">
          <mxGeometry y="30" width="209" height="28" as="geometry" />
        </mxCell>
        <mxCell id="x7x7rkkFgoDxlhbGWXUu-27" value="plan_name" style="text;strokeColor=none;fillColor=none;align=left;verticalAlign=middle;spacingLeft=4;spacingRight=4;overflow=hidden;points=[[0,0.5],[1,0.5]];portConstraint=eastwest;rotatable=0;whiteSpace=wrap;html=1;fontSize=13;fontFamily=Verdana;" parent="x7x7rkkFgoDxlhbGWXUu-22" vertex="1">
          <mxGeometry y="58" width="209" height="28" as="geometry" />
        </mxCell>
        <mxCell id="x7x7rkkFgoDxlhbGWXUu-24" value="average_benefits" style="text;strokeColor=none;fillColor=none;align=left;verticalAlign=middle;spacingLeft=4;spacingRight=4;overflow=hidden;points=[[0,0.5],[1,0.5]];portConstraint=eastwest;rotatable=0;whiteSpace=wrap;html=1;fontSize=13;fontFamily=Verdana;" parent="x7x7rkkFgoDxlhbGWXUu-22" vertex="1">
          <mxGeometry y="86" width="209" height="28" as="geometry" />
        </mxCell>
        <mxCell id="x7x7rkkFgoDxlhbGWXUu-32" value="Vacation Days" style="swimlane;fontStyle=0;childLayout=stackLayout;horizontal=1;startSize=30;horizontalStack=0;resizeParent=1;resizeParentMax=0;resizeLast=0;collapsible=1;marginBottom=0;whiteSpace=wrap;html=1;fontSize=13;fontFamily=Verdana;" parent="1" vertex="1">
          <mxGeometry x="617" y="-241" width="218" height="142" as="geometry" />
        </mxCell>
        <mxCell id="x7x7rkkFgoDxlhbGWXUu-33" value="vacation_id" style="text;strokeColor=#b85450;fillColor=#f8cecc;align=left;verticalAlign=middle;spacingLeft=4;spacingRight=4;overflow=hidden;points=[[0,0.5],[1,0.5]];portConstraint=eastwest;rotatable=0;whiteSpace=wrap;html=1;fontSize=13;fontStyle=1;fontFamily=Verdana;" parent="x7x7rkkFgoDxlhbGWXUu-32" vertex="1">
          <mxGeometry y="30" width="218" height="28" as="geometry" />
        </mxCell>
        <mxCell id="x7x7rkkFgoDxlhbGWXUu-34" value="employee_id" style="text;strokeColor=none;fillColor=none;align=left;verticalAlign=middle;spacingLeft=4;spacingRight=4;overflow=hidden;points=[[0,0.5],[1,0.5]];portConstraint=eastwest;rotatable=0;whiteSpace=wrap;html=1;fontSize=13;fontFamily=Verdana;" parent="x7x7rkkFgoDxlhbGWXUu-32" vertex="1">
          <mxGeometry y="58" width="218" height="28" as="geometry" />
        </mxCell>
        <mxCell id="x7x7rkkFgoDxlhbGWXUu-35" value="vacation_days_taken_to_date" style="text;strokeColor=none;fillColor=none;align=left;verticalAlign=middle;spacingLeft=4;spacingRight=4;overflow=hidden;points=[[0,0.5],[1,0.5]];portConstraint=eastwest;rotatable=0;whiteSpace=wrap;html=1;fontSize=13;fontFamily=Verdana;" parent="x7x7rkkFgoDxlhbGWXUu-32" vertex="1">
          <mxGeometry y="86" width="218" height="28" as="geometry" />
        </mxCell>
        <mxCell id="x7x7rkkFgoDxlhbGWXUu-36" value="vacation_days_previous_year" style="text;strokeColor=none;fillColor=none;align=left;verticalAlign=middle;spacingLeft=4;spacingRight=4;overflow=hidden;points=[[0,0.5],[1,0.5]];portConstraint=eastwest;rotatable=0;whiteSpace=wrap;html=1;fontSize=13;fontFamily=Verdana;" parent="x7x7rkkFgoDxlhbGWXUu-32" vertex="1">
          <mxGeometry y="114" width="218" height="28" as="geometry" />
        </mxCell>
        <mxCell id="x7x7rkkFgoDxlhbGWXUu-37" value="Shareholders" style="swimlane;fontStyle=0;childLayout=stackLayout;horizontal=1;startSize=30;horizontalStack=0;resizeParent=1;resizeParentMax=0;resizeLast=0;collapsible=1;marginBottom=0;whiteSpace=wrap;html=1;fontSize=13;fontFamily=Verdana;" parent="1" vertex="1">
          <mxGeometry x="663" y="-492" width="170" height="198" as="geometry" />
        </mxCell>
        <mxCell id="x7x7rkkFgoDxlhbGWXUu-38" value="shareholder_id" style="text;strokeColor=#b85450;fillColor=#f8cecc;align=left;verticalAlign=middle;spacingLeft=4;spacingRight=4;overflow=hidden;points=[[0,0.5],[1,0.5]];portConstraint=eastwest;rotatable=0;whiteSpace=wrap;html=1;fontSize=13;fontStyle=1;fontFamily=Verdana;" parent="x7x7rkkFgoDxlhbGWXUu-37" vertex="1">
          <mxGeometry y="30" width="170" height="28" as="geometry" />
        </mxCell>
        <mxCell id="hDPqVTXu_0Sy-WfJtwh6-18" value="employee_id" style="text;strokeColor=none;fillColor=none;align=left;verticalAlign=middle;spacingLeft=4;spacingRight=4;overflow=hidden;points=[[0,0.5],[1,0.5]];portConstraint=eastwest;rotatable=0;whiteSpace=wrap;html=1;fontSize=13;fontFamily=Verdana;" vertex="1" parent="x7x7rkkFgoDxlhbGWXUu-37">
          <mxGeometry y="58" width="170" height="28" as="geometry" />
        </mxCell>
        <mxCell id="x7x7rkkFgoDxlhbGWXUu-41" value="shares_owned" style="text;strokeColor=none;fillColor=none;align=left;verticalAlign=middle;spacingLeft=4;spacingRight=4;overflow=hidden;points=[[0,0.5],[1,0.5]];portConstraint=eastwest;rotatable=0;whiteSpace=wrap;html=1;fontSize=13;fontFamily=Verdana;" parent="x7x7rkkFgoDxlhbGWXUu-37" vertex="1">
          <mxGeometry y="86" width="170" height="28" as="geometry" />
        </mxCell>
        <mxCell id="hDPqVTXu_0Sy-WfJtwh6-19" value="share_value" style="text;strokeColor=none;fillColor=none;align=left;verticalAlign=middle;spacingLeft=4;spacingRight=4;overflow=hidden;points=[[0,0.5],[1,0.5]];portConstraint=eastwest;rotatable=0;whiteSpace=wrap;html=1;fontSize=13;fontFamily=Verdana;" vertex="1" parent="x7x7rkkFgoDxlhbGWXUu-37">
          <mxGeometry y="114" width="170" height="28" as="geometry" />
        </mxCell>
        <mxCell id="x7x7rkkFgoDxlhbGWXUu-42" value="shareholder_type" style="text;strokeColor=none;fillColor=none;align=left;verticalAlign=middle;spacingLeft=4;spacingRight=4;overflow=hidden;points=[[0,0.5],[1,0.5]];portConstraint=eastwest;rotatable=0;whiteSpace=wrap;html=1;fontSize=13;fontFamily=Verdana;" parent="x7x7rkkFgoDxlhbGWXUu-37" vertex="1">
          <mxGeometry y="142" width="170" height="28" as="geometry" />
        </mxCell>
        <mxCell id="hDPqVTXu_0Sy-WfJtwh6-20" value="status" style="text;strokeColor=none;fillColor=none;align=left;verticalAlign=middle;spacingLeft=4;spacingRight=4;overflow=hidden;points=[[0,0.5],[1,0.5]];portConstraint=eastwest;rotatable=0;whiteSpace=wrap;html=1;fontSize=13;fontFamily=Verdana;" vertex="1" parent="x7x7rkkFgoDxlhbGWXUu-37">
          <mxGeometry y="170" width="170" height="28" as="geometry" />
        </mxCell>
        <mxCell id="x7x7rkkFgoDxlhbGWXUu-43" value="Alerts" style="swimlane;fontStyle=0;childLayout=stackLayout;horizontal=1;startSize=30;horizontalStack=0;resizeParent=1;resizeParentMax=0;resizeLast=0;collapsible=1;marginBottom=0;whiteSpace=wrap;html=1;fontSize=13;fontFamily=Verdana;" parent="1" vertex="1">
          <mxGeometry x="-125" y="-256" width="209" height="170" as="geometry" />
        </mxCell>
        <mxCell id="x7x7rkkFgoDxlhbGWXUu-44" value="alert_id" style="text;strokeColor=#b85450;fillColor=#f8cecc;align=left;verticalAlign=middle;spacingLeft=4;spacingRight=4;overflow=hidden;points=[[0,0.5],[1,0.5]];portConstraint=eastwest;rotatable=0;whiteSpace=wrap;html=1;fontSize=13;fontStyle=1;fontFamily=Verdana;" parent="x7x7rkkFgoDxlhbGWXUu-43" vertex="1">
          <mxGeometry y="30" width="209" height="28" as="geometry" />
        </mxCell>
        <mxCell id="x7x7rkkFgoDxlhbGWXUu-46" value="employee_id" style="text;strokeColor=none;fillColor=none;align=left;verticalAlign=middle;spacingLeft=4;spacingRight=4;overflow=hidden;points=[[0,0.5],[1,0.5]];portConstraint=eastwest;rotatable=0;whiteSpace=wrap;html=1;fontSize=13;fontFamily=Verdana;" parent="x7x7rkkFgoDxlhbGWXUu-43" vertex="1">
          <mxGeometry y="58" width="209" height="28" as="geometry" />
        </mxCell>
        <mxCell id="x7x7rkkFgoDxlhbGWXUu-45" value="alert_type" style="text;strokeColor=none;fillColor=none;align=left;verticalAlign=middle;spacingLeft=4;spacingRight=4;overflow=hidden;points=[[0,0.5],[1,0.5]];portConstraint=eastwest;rotatable=0;whiteSpace=wrap;html=1;fontSize=13;fontFamily=Verdana;" parent="x7x7rkkFgoDxlhbGWXUu-43" vertex="1">
          <mxGeometry y="86" width="209" height="28" as="geometry" />
        </mxCell>
        <mxCell id="x7x7rkkFgoDxlhbGWXUu-47" value="alert_date" style="text;strokeColor=none;fillColor=none;align=left;verticalAlign=middle;spacingLeft=4;spacingRight=4;overflow=hidden;points=[[0,0.5],[1,0.5]];portConstraint=eastwest;rotatable=0;whiteSpace=wrap;html=1;fontSize=13;fontFamily=Verdana;" parent="x7x7rkkFgoDxlhbGWXUu-43" vertex="1">
          <mxGeometry y="114" width="209" height="28" as="geometry" />
        </mxCell>
        <mxCell id="VOc4RIbkaTRIazJhaKSe-1" value="status" style="text;strokeColor=none;fillColor=none;align=left;verticalAlign=middle;spacingLeft=4;spacingRight=4;overflow=hidden;points=[[0,0.5],[1,0.5]];portConstraint=eastwest;rotatable=0;whiteSpace=wrap;html=1;fontSize=13;fontFamily=Verdana;" parent="x7x7rkkFgoDxlhbGWXUu-43" vertex="1">
          <mxGeometry y="142" width="209" height="28" as="geometry" />
        </mxCell>
        <mxCell id="hDPqVTXu_0Sy-WfJtwh6-3" value="SalaryInfos" style="swimlane;fontStyle=0;childLayout=stackLayout;horizontal=1;startSize=30;horizontalStack=0;resizeParent=1;resizeParentMax=0;resizeLast=0;collapsible=1;marginBottom=0;whiteSpace=wrap;html=1;fontSize=13;fontFamily=Verdana;" vertex="1" parent="1">
          <mxGeometry x="663" y="-1016" width="170" height="254" as="geometry" />
        </mxCell>
        <mxCell id="hDPqVTXu_0Sy-WfJtwh6-4" value="salary_id" style="text;strokeColor=#b85450;fillColor=#f8cecc;align=left;verticalAlign=middle;spacingLeft=4;spacingRight=4;overflow=hidden;points=[[0,0.5],[1,0.5]];portConstraint=eastwest;rotatable=0;whiteSpace=wrap;html=1;fontSize=13;fontStyle=1;fontFamily=Verdana;" vertex="1" parent="hDPqVTXu_0Sy-WfJtwh6-3">
          <mxGeometry y="30" width="170" height="28" as="geometry" />
        </mxCell>
        <mxCell id="hDPqVTXu_0Sy-WfJtwh6-5" value="employee_id" style="text;strokeColor=none;fillColor=none;align=left;verticalAlign=middle;spacingLeft=4;spacingRight=4;overflow=hidden;points=[[0,0.5],[1,0.5]];portConstraint=eastwest;rotatable=0;whiteSpace=wrap;html=1;fontSize=13;fontFamily=Verdana;" vertex="1" parent="hDPqVTXu_0Sy-WfJtwh6-3">
          <mxGeometry y="58" width="170" height="28" as="geometry" />
        </mxCell>
        <mxCell id="hDPqVTXu_0Sy-WfJtwh6-6" value="base_salary" style="text;strokeColor=none;fillColor=none;align=left;verticalAlign=middle;spacingLeft=4;spacingRight=4;overflow=hidden;points=[[0,0.5],[1,0.5]];portConstraint=eastwest;rotatable=0;whiteSpace=wrap;html=1;fontSize=13;fontFamily=Verdana;" vertex="1" parent="hDPqVTXu_0Sy-WfJtwh6-3">
          <mxGeometry y="86" width="170" height="28" as="geometry" />
        </mxCell>
        <mxCell id="hDPqVTXu_0Sy-WfJtwh6-7" value="allowances" style="text;strokeColor=none;fillColor=none;align=left;verticalAlign=middle;spacingLeft=4;spacingRight=4;overflow=hidden;points=[[0,0.5],[1,0.5]];portConstraint=eastwest;rotatable=0;whiteSpace=wrap;html=1;fontSize=13;fontFamily=Verdana;" vertex="1" parent="hDPqVTXu_0Sy-WfJtwh6-3">
          <mxGeometry y="114" width="170" height="28" as="geometry" />
        </mxCell>
        <mxCell id="hDPqVTXu_0Sy-WfJtwh6-8" value="bonus" style="text;strokeColor=none;fillColor=none;align=left;verticalAlign=middle;spacingLeft=4;spacingRight=4;overflow=hidden;points=[[0,0.5],[1,0.5]];portConstraint=eastwest;rotatable=0;whiteSpace=wrap;html=1;fontSize=13;fontFamily=Verdana;" vertex="1" parent="hDPqVTXu_0Sy-WfJtwh6-3">
          <mxGeometry y="142" width="170" height="28" as="geometry" />
        </mxCell>
        <mxCell id="hDPqVTXu_0Sy-WfJtwh6-9" value="deductions" style="text;strokeColor=none;fillColor=none;align=left;verticalAlign=middle;spacingLeft=4;spacingRight=4;overflow=hidden;points=[[0,0.5],[1,0.5]];portConstraint=eastwest;rotatable=0;whiteSpace=wrap;html=1;fontSize=13;fontFamily=Verdana;" vertex="1" parent="hDPqVTXu_0Sy-WfJtwh6-3">
          <mxGeometry y="170" width="170" height="28" as="geometry" />
        </mxCell>
        <mxCell id="hDPqVTXu_0Sy-WfJtwh6-11" value="effective_date" style="text;strokeColor=none;fillColor=none;align=left;verticalAlign=middle;spacingLeft=4;spacingRight=4;overflow=hidden;points=[[0,0.5],[1,0.5]];portConstraint=eastwest;rotatable=0;whiteSpace=wrap;html=1;fontSize=13;fontFamily=Verdana;" vertex="1" parent="hDPqVTXu_0Sy-WfJtwh6-3">
          <mxGeometry y="198" width="170" height="28" as="geometry" />
        </mxCell>
        <mxCell id="hDPqVTXu_0Sy-WfJtwh6-10" value="end_date" style="text;strokeColor=none;fillColor=none;align=left;verticalAlign=middle;spacingLeft=4;spacingRight=4;overflow=hidden;points=[[0,0.5],[1,0.5]];portConstraint=eastwest;rotatable=0;whiteSpace=wrap;html=1;fontSize=13;fontFamily=Verdana;" vertex="1" parent="hDPqVTXu_0Sy-WfJtwh6-3">
          <mxGeometry y="226" width="170" height="28" as="geometry" />
        </mxCell>
        <mxCell id="hDPqVTXu_0Sy-WfJtwh6-27" value="Branches " style="swimlane;fontStyle=0;childLayout=stackLayout;horizontal=1;startSize=30;horizontalStack=0;resizeParent=1;resizeParentMax=0;resizeLast=0;collapsible=1;marginBottom=0;whiteSpace=wrap;html=1;fontSize=13;fontFamily=Verdana;" vertex="1" parent="1">
          <mxGeometry x="-141" y="-1013" width="208" height="114" as="geometry" />
        </mxCell>
        <mxCell id="hDPqVTXu_0Sy-WfJtwh6-28" value="branch_id" style="text;strokeColor=#b85450;fillColor=#f8cecc;align=left;verticalAlign=middle;spacingLeft=4;spacingRight=4;overflow=hidden;points=[[0,0.5],[1,0.5]];portConstraint=eastwest;rotatable=0;whiteSpace=wrap;html=1;fontSize=13;fontStyle=1;fontFamily=Verdana;" vertex="1" parent="hDPqVTXu_0Sy-WfJtwh6-27">
          <mxGeometry y="30" width="208" height="28" as="geometry" />
        </mxCell>
        <mxCell id="hDPqVTXu_0Sy-WfJtwh6-29" value="branch_name" style="text;strokeColor=none;fillColor=none;align=left;verticalAlign=middle;spacingLeft=4;spacingRight=4;overflow=hidden;points=[[0,0.5],[1,0.5]];portConstraint=eastwest;rotatable=0;whiteSpace=wrap;html=1;fontSize=13;fontFamily=Verdana;" vertex="1" parent="hDPqVTXu_0Sy-WfJtwh6-27">
          <mxGeometry y="58" width="208" height="28" as="geometry" />
        </mxCell>
        <mxCell id="hDPqVTXu_0Sy-WfJtwh6-30" value="location" style="text;strokeColor=none;fillColor=none;align=left;verticalAlign=middle;spacingLeft=4;spacingRight=4;overflow=hidden;points=[[0,0.5],[1,0.5]];portConstraint=eastwest;rotatable=0;whiteSpace=wrap;html=1;fontSize=13;fontFamily=Verdana;" vertex="1" parent="hDPqVTXu_0Sy-WfJtwh6-27">
          <mxGeometry y="86" width="208" height="28" as="geometry" />
        </mxCell>
        <mxCell id="hDPqVTXu_0Sy-WfJtwh6-31" value="Positions  " style="swimlane;fontStyle=0;childLayout=stackLayout;horizontal=1;startSize=30;horizontalStack=0;resizeParent=1;resizeParentMax=0;resizeLast=0;collapsible=1;marginBottom=0;whiteSpace=wrap;html=1;fontSize=13;fontFamily=Verdana;" vertex="1" parent="1">
          <mxGeometry x="-409" y="-580" width="170" height="114" as="geometry" />
        </mxCell>
        <mxCell id="hDPqVTXu_0Sy-WfJtwh6-32" value="position_id" style="text;strokeColor=#b85450;fillColor=#f8cecc;align=left;verticalAlign=middle;spacingLeft=4;spacingRight=4;overflow=hidden;points=[[0,0.5],[1,0.5]];portConstraint=eastwest;rotatable=0;whiteSpace=wrap;html=1;fontSize=13;fontStyle=1;fontFamily=Verdana;" vertex="1" parent="hDPqVTXu_0Sy-WfJtwh6-31">
          <mxGeometry y="30" width="170" height="28" as="geometry" />
        </mxCell>
        <mxCell id="hDPqVTXu_0Sy-WfJtwh6-33" value="position_title" style="text;strokeColor=none;fillColor=none;align=left;verticalAlign=middle;spacingLeft=4;spacingRight=4;overflow=hidden;points=[[0,0.5],[1,0.5]];portConstraint=eastwest;rotatable=0;whiteSpace=wrap;html=1;fontSize=13;fontFamily=Verdana;" vertex="1" parent="hDPqVTXu_0Sy-WfJtwh6-31">
          <mxGeometry y="58" width="170" height="28" as="geometry" />
        </mxCell>
        <mxCell id="hDPqVTXu_0Sy-WfJtwh6-34" value="salary_grade" style="text;strokeColor=none;fillColor=none;align=left;verticalAlign=middle;spacingLeft=4;spacingRight=4;overflow=hidden;points=[[0,0.5],[1,0.5]];portConstraint=eastwest;rotatable=0;whiteSpace=wrap;html=1;fontSize=13;fontFamily=Verdana;" vertex="1" parent="hDPqVTXu_0Sy-WfJtwh6-31">
          <mxGeometry y="86" width="170" height="28" as="geometry" />
        </mxCell>
        <mxCell id="hDPqVTXu_0Sy-WfJtwh6-36" value="WorkHours " style="swimlane;fontStyle=0;childLayout=stackLayout;horizontal=1;startSize=30;horizontalStack=0;resizeParent=1;resizeParentMax=0;resizeLast=0;collapsible=1;marginBottom=0;whiteSpace=wrap;html=1;fontSize=13;fontFamily=Verdana;" vertex="1" parent="1">
          <mxGeometry x="129" y="-66" width="170" height="170" as="geometry" />
        </mxCell>
        <mxCell id="hDPqVTXu_0Sy-WfJtwh6-37" value="workhour_id" style="text;strokeColor=#b85450;fillColor=#f8cecc;align=left;verticalAlign=middle;spacingLeft=4;spacingRight=4;overflow=hidden;points=[[0,0.5],[1,0.5]];portConstraint=eastwest;rotatable=0;whiteSpace=wrap;html=1;fontSize=13;fontStyle=1;fontFamily=Verdana;" vertex="1" parent="hDPqVTXu_0Sy-WfJtwh6-36">
          <mxGeometry y="30" width="170" height="28" as="geometry" />
        </mxCell>
        <mxCell id="hDPqVTXu_0Sy-WfJtwh6-38" value="employee_id" style="text;strokeColor=none;fillColor=none;align=left;verticalAlign=middle;spacingLeft=4;spacingRight=4;overflow=hidden;points=[[0,0.5],[1,0.5]];portConstraint=eastwest;rotatable=0;whiteSpace=wrap;html=1;fontSize=13;fontFamily=Verdana;" vertex="1" parent="hDPqVTXu_0Sy-WfJtwh6-36">
          <mxGeometry y="58" width="170" height="28" as="geometry" />
        </mxCell>
        <mxCell id="hDPqVTXu_0Sy-WfJtwh6-39" value="start_time" style="text;strokeColor=none;fillColor=none;align=left;verticalAlign=middle;spacingLeft=4;spacingRight=4;overflow=hidden;points=[[0,0.5],[1,0.5]];portConstraint=eastwest;rotatable=0;whiteSpace=wrap;html=1;fontSize=13;fontFamily=Verdana;" vertex="1" parent="hDPqVTXu_0Sy-WfJtwh6-36">
          <mxGeometry y="86" width="170" height="28" as="geometry" />
        </mxCell>
        <mxCell id="hDPqVTXu_0Sy-WfJtwh6-40" value="end_time" style="text;strokeColor=none;fillColor=none;align=left;verticalAlign=middle;spacingLeft=4;spacingRight=4;overflow=hidden;points=[[0,0.5],[1,0.5]];portConstraint=eastwest;rotatable=0;whiteSpace=wrap;html=1;fontSize=13;fontFamily=Verdana;" vertex="1" parent="hDPqVTXu_0Sy-WfJtwh6-36">
          <mxGeometry y="114" width="170" height="28" as="geometry" />
        </mxCell>
        <mxCell id="hDPqVTXu_0Sy-WfJtwh6-41" value="overtime" style="text;strokeColor=none;fillColor=none;align=left;verticalAlign=middle;spacingLeft=4;spacingRight=4;overflow=hidden;points=[[0,0.5],[1,0.5]];portConstraint=eastwest;rotatable=0;whiteSpace=wrap;html=1;fontSize=13;fontFamily=Verdana;" vertex="1" parent="hDPqVTXu_0Sy-WfJtwh6-36">
          <mxGeometry y="142" width="170" height="28" as="geometry" />
        </mxCell>
        <mxCell id="hDPqVTXu_0Sy-WfJtwh6-51" value="WorkDays  " style="swimlane;fontStyle=0;childLayout=stackLayout;horizontal=1;startSize=30;horizontalStack=0;resizeParent=1;resizeParentMax=0;resizeLast=0;collapsible=1;marginBottom=0;whiteSpace=wrap;html=1;fontSize=13;fontFamily=Verdana;" vertex="1" parent="1">
          <mxGeometry x="412" y="-66" width="170" height="170" as="geometry" />
        </mxCell>
        <mxCell id="hDPqVTXu_0Sy-WfJtwh6-52" value="workday_id" style="text;strokeColor=#b85450;fillColor=#f8cecc;align=left;verticalAlign=middle;spacingLeft=4;spacingRight=4;overflow=hidden;points=[[0,0.5],[1,0.5]];portConstraint=eastwest;rotatable=0;whiteSpace=wrap;html=1;fontSize=13;fontStyle=1;fontFamily=Verdana;" vertex="1" parent="hDPqVTXu_0Sy-WfJtwh6-51">
          <mxGeometry y="30" width="170" height="28" as="geometry" />
        </mxCell>
        <mxCell id="hDPqVTXu_0Sy-WfJtwh6-53" value="employee_id" style="text;strokeColor=none;fillColor=none;align=left;verticalAlign=middle;spacingLeft=4;spacingRight=4;overflow=hidden;points=[[0,0.5],[1,0.5]];portConstraint=eastwest;rotatable=0;whiteSpace=wrap;html=1;fontSize=13;fontFamily=Verdana;" vertex="1" parent="hDPqVTXu_0Sy-WfJtwh6-51">
          <mxGeometry y="58" width="170" height="28" as="geometry" />
        </mxCell>
        <mxCell id="hDPqVTXu_0Sy-WfJtwh6-54" value="work_date" style="text;strokeColor=none;fillColor=none;align=left;verticalAlign=middle;spacingLeft=4;spacingRight=4;overflow=hidden;points=[[0,0.5],[1,0.5]];portConstraint=eastwest;rotatable=0;whiteSpace=wrap;html=1;fontSize=13;fontFamily=Verdana;" vertex="1" parent="hDPqVTXu_0Sy-WfJtwh6-51">
          <mxGeometry y="86" width="170" height="28" as="geometry" />
        </mxCell>
        <mxCell id="hDPqVTXu_0Sy-WfJtwh6-55" value="is_holiday" style="text;strokeColor=none;fillColor=none;align=left;verticalAlign=middle;spacingLeft=4;spacingRight=4;overflow=hidden;points=[[0,0.5],[1,0.5]];portConstraint=eastwest;rotatable=0;whiteSpace=wrap;html=1;fontSize=13;fontFamily=Verdana;" vertex="1" parent="hDPqVTXu_0Sy-WfJtwh6-51">
          <mxGeometry y="114" width="170" height="28" as="geometry" />
        </mxCell>
        <mxCell id="hDPqVTXu_0Sy-WfJtwh6-56" value="is_leave" style="text;strokeColor=none;fillColor=none;align=left;verticalAlign=middle;spacingLeft=4;spacingRight=4;overflow=hidden;points=[[0,0.5],[1,0.5]];portConstraint=eastwest;rotatable=0;whiteSpace=wrap;html=1;fontSize=13;fontFamily=Verdana;" vertex="1" parent="hDPqVTXu_0Sy-WfJtwh6-51">
          <mxGeometry y="142" width="170" height="28" as="geometry" />
        </mxCell>
        <mxCell id="hDPqVTXu_0Sy-WfJtwh6-60" value="" style="edgeStyle=entityRelationEdgeStyle;fontSize=12;html=1;endArrow=ERoneToMany;rounded=0;exitX=1;exitY=0.5;exitDx=0;exitDy=0;entryX=0;entryY=0.5;entryDx=0;entryDy=0;" edge="1" parent="1" source="hDPqVTXu_0Sy-WfJtwh6-28" target="hDPqVTXu_0Sy-WfJtwh6-1">
          <mxGeometry width="100" height="100" relative="1" as="geometry">
            <mxPoint x="166" y="-590" as="sourcePoint" />
            <mxPoint x="266" y="-690" as="targetPoint" />
          </mxGeometry>
        </mxCell>
        <mxCell id="hDPqVTXu_0Sy-WfJtwh6-61" value="" style="edgeStyle=entityRelationEdgeStyle;fontSize=12;html=1;endArrow=ERoneToMany;rounded=0;entryX=1;entryY=0.5;entryDx=0;entryDy=0;exitX=0;exitY=0.5;exitDx=0;exitDy=0;" edge="1" parent="1" source="x7x7rkkFgoDxlhbGWXUu-12" target="x7x7rkkFgoDxlhbGWXUu-9">
          <mxGeometry width="100" height="100" relative="1" as="geometry">
            <mxPoint x="388" y="-923" as="sourcePoint" />
            <mxPoint x="261" y="-545" as="targetPoint" />
          </mxGeometry>
        </mxCell>
        <mxCell id="hDPqVTXu_0Sy-WfJtwh6-62" value="" style="edgeStyle=entityRelationEdgeStyle;fontSize=12;html=1;endArrow=ERoneToMany;rounded=0;exitX=1;exitY=0.5;exitDx=0;exitDy=0;entryX=0;entryY=0.5;entryDx=0;entryDy=0;" edge="1" parent="1" source="hDPqVTXu_0Sy-WfJtwh6-32" target="hDPqVTXu_0Sy-WfJtwh6-2">
          <mxGeometry width="100" height="100" relative="1" as="geometry">
            <mxPoint x="673" y="-628" as="sourcePoint" />
            <mxPoint x="549" y="-472" as="targetPoint" />
          </mxGeometry>
        </mxCell>
        <mxCell id="hDPqVTXu_0Sy-WfJtwh6-63" value="" style="endArrow=none;html=1;rounded=0;exitX=0;exitY=0.5;exitDx=0;exitDy=0;entryX=1;entryY=0.5;entryDx=0;entryDy=0;" edge="1" parent="1" source="hDPqVTXu_0Sy-WfJtwh6-18" target="x7x7rkkFgoDxlhbGWXUu-2">
          <mxGeometry relative="1" as="geometry">
            <mxPoint x="136" y="-578" as="sourcePoint" />
            <mxPoint x="296" y="-578" as="targetPoint" />
            <Array as="points">
              <mxPoint x="579" y="-420" />
              <mxPoint x="575" y="-779" />
            </Array>
          </mxGeometry>
        </mxCell>
      </root>
    </mxGraphModel>
  </diagram>
</mxfile>
